# xmcd CD database file
#
# Track frame offsets:
#	150
#	22690
#	39618
#	60469
#	79146
#	97816
#	115220
#	137039
#	157314
#	175846
#	192775
#	211325
#	239136
#
# Disc length: 3534 seconds
#
# Revision: 0
# Processed by: cddbd v1.5.2PL0 Copyright (c) Steve Scherf et al.
# Submitted via: CDex 1.70beta2
#
DISCID=ab0dcc0d
DTITLE=dorlis - swingin' street 4
DYEAR=2010
DGENRE=Jazz
TTITLE0=泣いても泣いても - dorlis×コトリンゴ
TTITLE1=恋の同盟 - dorlis×chihiRo (JiLL-Decoy association)×須永辰緒
TTITLE2=Room 305 - dorlis×土岐麻子
TTITLE3=壊れるまでアイシサセテ - dorlis×quasimode
TTITLE4=さよならのあと
TTITLE5=恋するパレット - dorlis×paris match
TTITLE6=水平線と夕焼けと片想い - dorlis×Likkle Mai
TTITLE7=午前0時のワナ - dorlis×INO hidefumi
TTITLE8=手と手とって
TTITLE9=circle
TTITLE10=Girl
TTITLE11=はじまりのリズム
TTITLE12=Room 305 PV
EXTD=YEAR: 2010
EXTT0=
EXTT1=
EXTT2=
EXTT3=
EXTT4=
EXTT5=
EXTT6=
EXTT7=
EXTT8=
EXTT9=
EXTT10=
EXTT11=
EXTT12=
PLAYORDER=
